STARTFONT   2.1
FONT -windows-ProggyClean-medium-r-normal--13-80-96-96-c-70-microsoft-cp1252
SIZE  8  96   96
FONTBOUNDINGBOX 7  13  0  -3
STARTPROPERTIES  4
FONT_ASCENT 10
FONT_DESCENT 3
CAP_HEIGHT 7
DEFAULT_CHAR 8223
ENDPROPERTIES
CHARS  256
STARTCHAR 0
ENCODING 0
SWIDTH    7000    0
DWIDTH    7    0
BBX  7  13  0   -3
BITMAP
AA
00
82
00
82
00
82
00
82
00
82
00
AA
ENDCHAR
STARTCHAR 1
ENCODING 1
SWIDTH    7000    0
DWIDTH    7    0
BBX  7  13  0   -3
BITMAP
00
00
00
00
10
38
7C
38
10
00
00
00
00
ENDCHAR
STARTCHAR 2
ENCODING 2
SWIDTH    7000    0
DWIDTH    7    0
BBX  7  13  0   -3
BITMAP
AA
54
AA
54
AA
54
AA
54
AA
54
AA
54
AA
ENDCHAR
STARTCHAR 3
ENCODING 3
SWIDTH    7000    0
DWIDTH    7    0
BBX  7  13  0   -3
BITMAP
00
50
50
70
50
5E
04
04
04
04
00
00
00
ENDCHAR
STARTCHAR 4
ENCODING 4
SWIDTH    7000    0
DWIDTH    7    0
BBX  7  13  0   -3
BITMAP
00
70
40
60
40
4E
08
0C
08
08
00
00
00
ENDCHAR
STARTCHAR 5
ENCODING 5
SWIDTH    7000    0
DWIDTH    7    0
BBX  7  13  0   -3
BITMAP
00
30
40
40
40
3E
0A
0C
0A
0A
00
00
00
ENDCHAR
STARTCHAR 6
ENCODING 6
SWIDTH    7000    0
DWIDTH    7    0
BBX  7  13  0   -3
BITMAP
00
40
40
40
40
7E
08
0C
08
08
00
00
00
ENDCHAR
STARTCHAR 7
ENCODING 7
SWIDTH    7000    0
DWIDTH    7    0
BBX  7  13  0   -3
BITMAP
00
00
10
28
28
10
00
00
00
00
00
00
00
ENDCHAR
STARTCHAR 8
ENCODING 8
SWIDTH    7000    0
DWIDTH    7    0
BBX  7  13  0   -3
BITMAP
00
00
00
10
10
7C
10
10
00
7C
00
00
00
ENDCHAR
STARTCHAR 9
ENCODING 9
SWIDTH    7000    0
DWIDTH    7    0
BBX  7  13  0   -3
BITMAP
00
60
50
50
50
58
08
08
08
0E
00
00
00
ENDCHAR
STARTCHAR 10
ENCODING 10
SWIDTH    7000    0
DWIDTH    7    0
BBX  7  13  0   -3
BITMAP
00
50
50
50
20
2E
04
04
04
04
00
00
00
ENDCHAR
STARTCHAR 11
ENCODING 11
SWIDTH    7000    0
DWIDTH    7    0
BBX  7  13  0   -3
BITMAP
10
10
10
10
10
10
F0
00
00
00
00
00
00
ENDCHAR
STARTCHAR 12
ENCODING 12
SWIDTH    7000    0
DWIDTH    7    0
BBX  7  13  0   -3
BITMAP
00
00
00
00
00
00
F0
10
10
10
10
10
10
ENDCHAR
STARTCHAR 13
ENCODING 13
SWIDTH    7000    0
DWIDTH    7    0
BBX  7  13  0   -3
BITMAP
00
00
00
00
00
00
1E
10
10
10
10
10
10
ENDCHAR
STARTCHAR 14
ENCODING 14
SWIDTH    7000    0
DWIDTH    7    0
BBX  7  13  0   -3
BITMAP
10
10
10
10
10
10
1E
00
00
00
00
00
00
ENDCHAR
STARTCHAR 15
ENCODING 15
SWIDTH    7000    0
DWIDTH    7    0
BBX  7  13  0   -3
BITMAP
10
10
10
10
10
10
FE
10
10
10
10
10
10
ENDCHAR
STARTCHAR 16
ENCODING 16
SWIDTH    7000    0
DWIDTH    7    0
BBX  7  13  0   -3
BITMAP
FE
00
00
00
00
00
00
00
00
00
00
00
00
ENDCHAR
STARTCHAR 17
ENCODING 17
SWIDTH    7000    0
DWIDTH    7    0
BBX  7  13  0   -3
BITMAP
00
00
00
FE
00
00
00
00
00
00
00
00
00
ENDCHAR
STARTCHAR 18
ENCODING 18
SWIDTH    7000    0
DWIDTH    7    0
BBX  7  13  0   -3
BITMAP
00
00
00
00
00
00
FE
00
00
00
00
00
00
ENDCHAR
STARTCHAR 19
ENCODING 19
SWIDTH    7000    0
DWIDTH    7    0
BBX  7  13  0   -3
BITMAP
00
00
00
00
00
00
00
00
00
FE
00
00
00
ENDCHAR
STARTCHAR 20
ENCODING 20
SWIDTH    7000    0
DWIDTH    7    0
BBX  7  13  0   -3
BITMAP
00
00
00
00
00
00
00
00
00
00
00
00
FE
ENDCHAR
STARTCHAR 21
ENCODING 21
SWIDTH    7000    0
DWIDTH    7    0
BBX  7  13  0   -3
BITMAP
10
10
10
10
10
10
1E
10
10
10
10
10
10
ENDCHAR
STARTCHAR 22
ENCODING 22
SWIDTH    7000    0
DWIDTH    7    0
BBX  7  13  0   -3
BITMAP
10
10
10
10
10
10
F0
10
10
10
10
10
10
ENDCHAR
STARTCHAR 23
ENCODING 23
SWIDTH    7000    0
DWIDTH    7    0
BBX  7  13  0   -3
BITMAP
10
10
10
10
10
10
FE
00
00
00
00
00
00
ENDCHAR
STARTCHAR 24
ENCODING 24
SWIDTH    7000    0
DWIDTH    7    0
BBX  7  13  0   -3
BITMAP
00
00
00
00
00
00
FE
10
10
10
10
10
10
ENDCHAR
STARTCHAR 25
ENCODING 25
SWIDTH    7000    0
DWIDTH    7    0
BBX  7  13  0   -3
BITMAP
10
10
10
10
10
10
10
10
10
10
10
10
10
ENDCHAR
STARTCHAR 26
ENCODING 26
SWIDTH    7000    0
DWIDTH    7    0
BBX  7  13  0   -3
BITMAP
00
00
00
06
18
60
18
06
00
7E
00
00
00
ENDCHAR
STARTCHAR 27
ENCODING 27
SWIDTH    7000    0
DWIDTH    7    0
BBX  7  13  0   -3
BITMAP
00
00
00
60
18
06
18
60
00
7E
00
00
00
ENDCHAR
STARTCHAR 28
ENCODING 28
SWIDTH    7000    0
DWIDTH    7    0
BBX  7  13  0   -3
BITMAP
00
00
00
00
7E
24
24
24
24
24
00
00
00
ENDCHAR
STARTCHAR 29
ENCODING 29
SWIDTH    7000    0
DWIDTH    7    0
BBX  7  13  0   -3
BITMAP
00
00
00
00
04
7E
08
7E
10
00
00
00
00
ENDCHAR
STARTCHAR 30
ENCODING 30
SWIDTH    7000    0
DWIDTH    7    0
BBX  7  13  0   -3
BITMAP
00
00
18
20
20
78
20
20
40
7C
00
00
00
ENDCHAR
STARTCHAR 31
ENCODING 31
SWIDTH    7000    0
DWIDTH    7    0
BBX  7  13  0   -3
BITMAP
00
00
00
00
00
00
38
00
00
00
00
00
00
ENDCHAR
STARTCHAR 32
ENCODING 32
SWIDTH    7000    0
DWIDTH    7    0
BBX  7  13  0   -3
BITMAP
00
00
00
00
00
00
00
00
00
00
00
00
00
ENDCHAR
STARTCHAR 33
ENCODING 33
SWIDTH    7000    0
DWIDTH    7    0
BBX  7  13  0   -3
BITMAP
00
00
10
10
10
10
10
10
00
10
00
00
00
ENDCHAR
STARTCHAR 34
ENCODING 34
SWIDTH    7000    0
DWIDTH    7    0
BBX  7  13  0   -3
BITMAP
00
28
28
28
00
00
00
00
00
00
00
00
00
ENDCHAR
STARTCHAR 35
ENCODING 35
SWIDTH    7000    0
DWIDTH    7    0
BBX  7  13  0   -3
BITMAP
00
00
14
14
7E
28
28
FC
50
50
00
00
00
ENDCHAR
STARTCHAR 36
ENCODING 36
SWIDTH    7000    0
DWIDTH    7    0
BBX  7  13  0   -3
BITMAP
00
00
10
3C
50
50
38
14
14
78
10
00
00
ENDCHAR
STARTCHAR 37
ENCODING 37
SWIDTH    7000    0
DWIDTH    7    0
BBX  7  13  0   -3
BITMAP
00
00
44
A8
A8
50
14
2A
2A
44
00
00
00
ENDCHAR
STARTCHAR 38
ENCODING 38
SWIDTH    7000    0
DWIDTH    7    0
BBX  7  13  0   -3
BITMAP
00
00
30
48
48
32
4A
44
44
3A
00
00
00
ENDCHAR
STARTCHAR 39
ENCODING 39
SWIDTH    7000    0
DWIDTH    7    0
BBX  7  13  0   -3
BITMAP
00
10
10
10
00
00
00
00
00
00
00
00
00
ENDCHAR
STARTCHAR 40
ENCODING 40
SWIDTH    7000    0
DWIDTH    7    0
BBX  7  13  0   -3
BITMAP
00
08
10
10
20
20
20
20
20
10
10
08
00
ENDCHAR
STARTCHAR 41
ENCODING 41
SWIDTH    7000    0
DWIDTH    7    0
BBX  7  13  0   -3
BITMAP
00
20
10
10
08
08
08
08
08
10
10
20
00
ENDCHAR
STARTCHAR 42
ENCODING 42
SWIDTH    7000    0
DWIDTH    7    0
BBX  7  13  0   -3
BITMAP
00
00
00
00
10
54
38
54
10
00
00
00
00
ENDCHAR
STARTCHAR 43
ENCODING 43
SWIDTH    7000    0
DWIDTH    7    0
BBX  7  13  0   -3
BITMAP
00
00
00
00
10
10
7C
10
10
00
00
00
00
ENDCHAR
STARTCHAR 44
ENCODING 44
SWIDTH    7000    0
DWIDTH    7    0
BBX  7  13  0   -3
BITMAP
00
00
00
00
00
00
00
00
20
20
20
40
00
ENDCHAR
STARTCHAR 45
ENCODING 45
SWIDTH    7000    0
DWIDTH    7    0
BBX  7  13  0   -3
BITMAP
00
00
00
00
00
00
7C
00
00
00
00
00
00
ENDCHAR
STARTCHAR 46
ENCODING 46
SWIDTH    7000    0
DWIDTH    7    0
BBX  7  13  0   -3
BITMAP
00
00
00
00
00
00
00
00
20
20
00
00
00
ENDCHAR
STARTCHAR 47
ENCODING 47
SWIDTH    7000    0
DWIDTH    7    0
BBX  7  13  0   -3
BITMAP
00
04
04
08
08
10
10
20
20
40
40
00
00
ENDCHAR
STARTCHAR 48
ENCODING 48
SWIDTH    7000    0
DWIDTH    7    0
BBX  7  13  0   -3
BITMAP
00
00
38
44
44
54
54
44
44
38
00
00
00
ENDCHAR
STARTCHAR 49
ENCODING 49
SWIDTH    7000    0
DWIDTH    7    0
BBX  7  13  0   -3
BITMAP
00
00
10
30
50
10
10
10
10
7C
00
00
00
ENDCHAR
STARTCHAR 50
ENCODING 50
SWIDTH    7000    0
DWIDTH    7    0
BBX  7  13  0   -3
BITMAP
00
00
38
44
04
08
10
20
40
7C
00
00
00
ENDCHAR
STARTCHAR 51
ENCODING 51
SWIDTH    7000    0
DWIDTH    7    0
BBX  7  13  0   -3
BITMAP
00
00
38
44
04
18
04
04
44
38
00
00
00
ENDCHAR
STARTCHAR 52
ENCODING 52
SWIDTH    7000    0
DWIDTH    7    0
BBX  7  13  0   -3
BITMAP
00
00
04
0C
14
24
44
7E
04
04
00
00
00
ENDCHAR
STARTCHAR 53
ENCODING 53
SWIDTH    7000    0
DWIDTH    7    0
BBX  7  13  0   -3
BITMAP
00
00
7C
40
40
78
04
04
44
38
00
00
00
ENDCHAR
STARTCHAR 54
ENCODING 54
SWIDTH    7000    0
DWIDTH    7    0
BBX  7  13  0   -3
BITMAP
00
00
18
20
40
78
44
44
44
38
00
00
00
ENDCHAR
STARTCHAR 55
ENCODING 55
SWIDTH    7000    0
DWIDTH    7    0
BBX  7  13  0   -3
BITMAP
00
00
7C
04
08
08
10
10
20
20
00
00
00
ENDCHAR
STARTCHAR 56
ENCODING 56
SWIDTH    7000    0
DWIDTH    7    0
BBX  7  13  0   -3
BITMAP
00
00
38
44
44
38
44
44
44
38
00
00
00
ENDCHAR
STARTCHAR 57
ENCODING 57
SWIDTH    7000    0
DWIDTH    7    0
BBX  7  13  0   -3
BITMAP
00
00
38
44
44
44
3C
04
08
30
00
00
00
ENDCHAR
STARTCHAR 58
ENCODING 58
SWIDTH    7000    0
DWIDTH    7    0
BBX  7  13  0   -3
BITMAP
00
00
00
00
10
10
00
00
10
10
00
00
00
ENDCHAR
STARTCHAR 59
ENCODING 59
SWIDTH    7000    0
DWIDTH    7    0
BBX  7  13  0   -3
BITMAP
00
00
00
00
20
20
00
00
20
20
20
40
00
ENDCHAR
STARTCHAR 60
ENCODING 60
SWIDTH    7000    0
DWIDTH    7    0
BBX  7  13  0   -3
BITMAP
00
00
00
00
0C
30
C0
30
0C
00
00
00
00
ENDCHAR
STARTCHAR 61
ENCODING 61
SWIDTH    7000    0
DWIDTH    7    0
BBX  7  13  0   -3
BITMAP
00
00
00
00
00
7E
00
7E
00
00
00
00
00
ENDCHAR
STARTCHAR 62
ENCODING 62
SWIDTH    7000    0
DWIDTH    7    0
BBX  7  13  0   -3
BITMAP
00
00
00
00
60
18
06
18
60
00
00
00
00
ENDCHAR
STARTCHAR 63
ENCODING 63
SWIDTH    7000    0
DWIDTH    7    0
BBX  7  13  0   -3
BITMAP
00
00
38
44
04
08
10
10
00
10
00
00
00
ENDCHAR
STARTCHAR 64
ENCODING 64
SWIDTH    7000    0
DWIDTH    7    0
BBX  7  13  0   -3
BITMAP
00
00
38
44
9A
AA
AA
9C
40
3C
00
00
00
ENDCHAR
STARTCHAR 65
ENCODING 65
SWIDTH    7000    0
DWIDTH    7    0
BBX  7  13  0   -3
BITMAP
00
00
18
18
24
24
3C
42
42
42
00
00
00
ENDCHAR
STARTCHAR 66
ENCODING 66
SWIDTH    7000    0
DWIDTH    7    0
BBX  7  13  0   -3
BITMAP
00
00
78
44
44
7C
42
42
42
7C
00
00
00
ENDCHAR
STARTCHAR 67
ENCODING 67
SWIDTH    7000    0
DWIDTH    7    0
BBX  7  13  0   -3
BITMAP
00
00
3C
40
40
40
40
40
40
3C
00
00
00
ENDCHAR
STARTCHAR 68
ENCODING 68
SWIDTH    7000    0
DWIDTH    7    0
BBX  7  13  0   -3
BITMAP
00
00
78
44
42
42
42
42
44
78
00
00
00
ENDCHAR
STARTCHAR 69
ENCODING 69
SWIDTH    7000    0
DWIDTH    7    0
BBX  7  13  0   -3
BITMAP
00
00
7C
40
40
78
40
40
40
7C
00
00
00
ENDCHAR
STARTCHAR 70
ENCODING 70
SWIDTH    7000    0
DWIDTH    7    0
BBX  7  13  0   -3
BITMAP
00
00
7C
40
40
78
40
40
40
40
00
00
00
ENDCHAR
STARTCHAR 71
ENCODING 71
SWIDTH    7000    0
DWIDTH    7    0
BBX  7  13  0   -3
BITMAP
00
00
1C
22
40
40
4E
42
22
1C
00
00
00
ENDCHAR
STARTCHAR 72
ENCODING 72
SWIDTH    7000    0
DWIDTH    7    0
BBX  7  13  0   -3
BITMAP
00
00
42
42
42
7E
42
42
42
42
00
00
00
ENDCHAR
STARTCHAR 73
ENCODING 73
SWIDTH    7000    0
DWIDTH    7    0
BBX  7  13  0   -3
BITMAP
00
00
38
10
10
10
10
10
10
38
00
00
00
ENDCHAR
STARTCHAR 74
ENCODING 74
SWIDTH    7000    0
DWIDTH    7    0
BBX  7  13  0   -3
BITMAP
00
00
38
08
08
08
08
08
08
70
00
00
00
ENDCHAR
STARTCHAR 75
ENCODING 75
SWIDTH    7000    0
DWIDTH    7    0
BBX  7  13  0   -3
BITMAP
00
00
42
44
48
50
70
48
44
42
00
00
00
ENDCHAR
STARTCHAR 76
ENCODING 76
SWIDTH    7000    0
DWIDTH    7    0
BBX  7  13  0   -3
BITMAP
00
00
40
40
40
40
40
40
40
7C
00
00
00
ENDCHAR
STARTCHAR 77
ENCODING 77
SWIDTH    7000    0
DWIDTH    7    0
BBX  7  13  0   -3
BITMAP
00
00
C6
C6
AA
AA
92
92
82
82
00
00
00
ENDCHAR
STARTCHAR 78
ENCODING 78
SWIDTH    7000    0
DWIDTH    7    0
BBX  7  13  0   -3
BITMAP
00
00
62
62
52
52
4A
4A
46
46
00
00
00
ENDCHAR
STARTCHAR 79
ENCODING 79
SWIDTH    7000    0
DWIDTH    7    0
BBX  7  13  0   -3
BITMAP
00
00
18
24
42
42
42
42
24
18
00
00
00
ENDCHAR
STARTCHAR 80
ENCODING 80
SWIDTH    7000    0
DWIDTH    7    0
BBX  7  13  0   -3
BITMAP
00
00
78
44
44
44
78
40
40
40
00
00
00
ENDCHAR
STARTCHAR 81
ENCODING 81
SWIDTH    7000    0
DWIDTH    7    0
BBX  7  13  0   -3
BITMAP
00
00
18
24
42
42
42
42
24
1A
02
00
00
ENDCHAR
STARTCHAR 82
ENCODING 82
SWIDTH    7000    0
DWIDTH    7    0
BBX  7  13  0   -3
BITMAP
00
00
78
44
44
44
78
48
44
42
00
00
00
ENDCHAR
STARTCHAR 83
ENCODING 83
SWIDTH    7000    0
DWIDTH    7    0
BBX  7  13  0   -3
BITMAP
00
00
3C
42
40
30
0C
02
42
3C
00
00
00
ENDCHAR
STARTCHAR 84
ENCODING 84
SWIDTH    7000    0
DWIDTH    7    0
BBX  7  13  0   -3
BITMAP
00
00
FE
10
10
10
10
10
10
10
00
00
00
ENDCHAR
STARTCHAR 85
ENCODING 85
SWIDTH    7000    0
DWIDTH    7    0
BBX  7  13  0   -3
BITMAP
00
00
42
42
42
42
42
42
42
3C
00
00
00
ENDCHAR
STARTCHAR 86
ENCODING 86
SWIDTH    7000    0
DWIDTH    7    0
BBX  7  13  0   -3
BITMAP
00
00
82
82
44
44
28
28
10
10
00
00
00
ENDCHAR
STARTCHAR 87
ENCODING 87
SWIDTH    7000    0
DWIDTH    7    0
BBX  7  13  0   -3
BITMAP
00
00
82
92
92
AA
AA
6C
44
44
00
00
00
ENDCHAR
STARTCHAR 88
ENCODING 88
SWIDTH    7000    0
DWIDTH    7    0
BBX  7  13  0   -3
BITMAP
00
00
42
42
24
18
18
24
42
42
00
00
00
ENDCHAR
STARTCHAR 89
ENCODING 89
SWIDTH    7000    0
DWIDTH    7    0
BBX  7  13  0   -3
BITMAP
00
00
82
82
44
28
10
10
10
10
00
00
00
ENDCHAR
STARTCHAR 90
ENCODING 90
SWIDTH    7000    0
DWIDTH    7    0
BBX  7  13  0   -3
BITMAP
00
00
7E
02
04
08
10
20
40
7E
00
00
00
ENDCHAR
STARTCHAR 91
ENCODING 91
SWIDTH    7000    0
DWIDTH    7    0
BBX  7  13  0   -3
BITMAP
00
38
20
20
20
20
20
20
20
20
20
38
00
ENDCHAR
STARTCHAR 92
ENCODING 92
SWIDTH    7000    0
DWIDTH    7    0
BBX  7  13  0   -3
BITMAP
00
40
40
20
20
10
10
08
08
04
04
00
00
ENDCHAR
STARTCHAR 93
ENCODING 93
SWIDTH    7000    0
DWIDTH    7    0
BBX  7  13  0   -3
BITMAP
00
38
08
08
08
08
08
08
08
08
08
38
00
ENDCHAR
STARTCHAR 94
ENCODING 94
SWIDTH    7000    0
DWIDTH    7    0
BBX  7  13  0   -3
BITMAP
00
10
10
28
28
44
44
00
00
00
00
00
00
ENDCHAR
STARTCHAR 95
ENCODING 95
SWIDTH    7000    0
DWIDTH    7    0
BBX  7  13  0   -3
BITMAP
00
00
00
00
00
00
00
00
00
00
FE
00
00
ENDCHAR
STARTCHAR 96
ENCODING 96
SWIDTH    7000    0
DWIDTH    7    0
BBX  7  13  0   -3
BITMAP
00
20
10
00
00
00
00
00
00
00
00
00
00
ENDCHAR
STARTCHAR 97
ENCODING 97
SWIDTH    7000    0
DWIDTH    7    0
BBX  7  13  0   -3
BITMAP
00
00
00
00
38
04
3C
44
44
3C
00
00
00
ENDCHAR
STARTCHAR 98
ENCODING 98
SWIDTH    7000    0
DWIDTH    7    0
BBX  7  13  0   -3
BITMAP
00
40
40
40
78
44
44
44
44
78
00
00
00
ENDCHAR
STARTCHAR 99
ENCODING 99
SWIDTH    7000    0
DWIDTH    7    0
BBX  7  13  0   -3
BITMAP
00
00
00
00
38
44
40
40
44
38
00
00
00
ENDCHAR
STARTCHAR 100
ENCODING 100
SWIDTH    7000    0
DWIDTH    7    0
BBX  7  13  0   -3
BITMAP
00
04
04
04
3C
44
44
44
44
3C
00
00
00
ENDCHAR
STARTCHAR 101
ENCODING 101
SWIDTH    7000    0
DWIDTH    7    0
BBX  7  13  0   -3
BITMAP
00
00
00
00
38
44
7C
40
44
38
00
00
00
ENDCHAR
STARTCHAR 102
ENCODING 102
SWIDTH    7000    0
DWIDTH    7    0
BBX  7  13  0   -3
BITMAP
00
1C
20
20
78
20
20
20
20
20
00
00
00
ENDCHAR
STARTCHAR 103
ENCODING 103
SWIDTH    7000    0
DWIDTH    7    0
BBX  7  13  0   -3
BITMAP
00
00
00
00
3C
44
44
44
44
3C
04
04
38
ENDCHAR
STARTCHAR 104
ENCODING 104
SWIDTH    7000    0
DWIDTH    7    0
BBX  7  13  0   -3
BITMAP
00
40
40
40
78
44
44
44
44
44
00
00
00
ENDCHAR
STARTCHAR 105
ENCODING 105
SWIDTH    7000    0
DWIDTH    7    0
BBX  7  13  0   -3
BITMAP
00
10
00
00
30
10
10
10
10
10
00
00
00
ENDCHAR
STARTCHAR 106
ENCODING 106
SWIDTH    7000    0
DWIDTH    7    0
BBX  7  13  0   -3
BITMAP
00
08
00
00
18
08
08
08
08
08
08
70
00
ENDCHAR
STARTCHAR 107
ENCODING 107
SWIDTH    7000    0
DWIDTH    7    0
BBX  7  13  0   -3
BITMAP
00
40
40
40
44
48
50
70
48
44
00
00
00
ENDCHAR
STARTCHAR 108
ENCODING 108
SWIDTH    7000    0
DWIDTH    7    0
BBX  7  13  0   -3
BITMAP
00
30
10
10
10
10
10
10
10
10
00
00
00
ENDCHAR
STARTCHAR 109
ENCODING 109
SWIDTH    7000    0
DWIDTH    7    0
BBX  7  13  0   -3
BITMAP
00
00
00
00
EC
92
92
92
92
92
00
00
00
ENDCHAR
STARTCHAR 110
ENCODING 110
SWIDTH    7000    0
DWIDTH    7    0
BBX  7  13  0   -3
BITMAP
00
00
00
00
78
44
44
44
44
44
00
00
00
ENDCHAR
STARTCHAR 111
ENCODING 111
SWIDTH    7000    0
DWIDTH    7    0
BBX  7  13  0   -3
BITMAP
00
00
00
00
38
44
44
44
44
38
00
00
00
ENDCHAR
STARTCHAR 112
ENCODING 112
SWIDTH    7000    0
DWIDTH    7    0
BBX  7  13  0   -3
BITMAP
00
00
00
00
78
44
44
44
44
78
40
40
40
ENDCHAR
STARTCHAR 113
ENCODING 113
SWIDTH    7000    0
DWIDTH    7    0
BBX  7  13  0   -3
BITMAP
00
00
00
00
3C
44
44
44
44
3C
04
04
04
ENDCHAR
STARTCHAR 114
ENCODING 114
SWIDTH    7000    0
DWIDTH    7    0
BBX  7  13  0   -3
BITMAP
00
00
00
00
58
64
40
40
40
40
00
00
00
ENDCHAR
STARTCHAR 115
ENCODING 115
SWIDTH    7000    0
DWIDTH    7    0
BBX  7  13  0   -3
BITMAP
00
00
00
00
3C
40
30
08
04
78
00
00
00
ENDCHAR
STARTCHAR 116
ENCODING 116
SWIDTH    7000    0
DWIDTH    7    0
BBX  7  13  0   -3
BITMAP
00
00
20
20
3C
20
20
20
20
1C
00
00
00
ENDCHAR
STARTCHAR 117
ENCODING 117
SWIDTH    7000    0
DWIDTH    7    0
BBX  7  13  0   -3
BITMAP
00
00
00
00
44
44
44
44
44
3C
00
00
00
ENDCHAR
STARTCHAR 118
ENCODING 118
SWIDTH    7000    0
DWIDTH    7    0
BBX  7  13  0   -3
BITMAP
00
00
00
00
44
44
28
28
10
10
00
00
00
ENDCHAR
STARTCHAR 119
ENCODING 119
SWIDTH    7000    0
DWIDTH    7    0
BBX  7  13  0   -3
BITMAP
00
00
00
00
82
92
92
AA
6C
44
00
00
00
ENDCHAR
STARTCHAR 120
ENCODING 120
SWIDTH    7000    0
DWIDTH    7    0
BBX  7  13  0   -3
BITMAP
00
00
00
00
44
28
10
10
28
44
00
00
00
ENDCHAR
STARTCHAR 121
ENCODING 121
SWIDTH    7000    0
DWIDTH    7    0
BBX  7  13  0   -3
BITMAP
00
00
00
00
44
44
44
44
44
3C
04
04
38
ENDCHAR
STARTCHAR 122
ENCODING 122
SWIDTH    7000    0
DWIDTH    7    0
BBX  7  13  0   -3
BITMAP
00
00
00
00
7C
04
08
10
20
7C
00
00
00
ENDCHAR
STARTCHAR 123
ENCODING 123
SWIDTH    7000    0
DWIDTH    7    0
BBX  7  13  0   -3
BITMAP
00
0C
10
10
10
10
60
10
10
10
10
0C
00
ENDCHAR
STARTCHAR 124
ENCODING 124
SWIDTH    7000    0
DWIDTH    7    0
BBX  7  13  0   -3
BITMAP
00
10
10
10
10
10
10
10
10
10
10
10
00
ENDCHAR
STARTCHAR 125
ENCODING 125
SWIDTH    7000    0
DWIDTH    7    0
BBX  7  13  0   -3
BITMAP
00
60
10
10
10
10
0C
10
10
10
10
60
00
ENDCHAR
STARTCHAR 126
ENCODING 126
SWIDTH    7000    0
DWIDTH    7    0
BBX  7  13  0   -3
BITMAP
00
00
00
00
00
72
9C
00
00
00
00
00
00
ENDCHAR
STARTCHAR 127
ENCODING 127
SWIDTH    7000    0
DWIDTH    7    0
BBX  7  13  0   -3
BITMAP
00
00
00
00
00
00
00
00
00
00
00
00
00
ENDCHAR
STARTCHAR 128
ENCODING 128
SWIDTH    7000    0
DWIDTH    7    0
BBX  7  13  0   -3
BITMAP
00
00
00
1C
22
78
20
78
22
1C
00
00
00
ENDCHAR
STARTCHAR 129
ENCODING 129
SWIDTH    7000    0
DWIDTH    7    0
BBX  7  13  0   -3
BITMAP
00
00
00
00
00
00
00
00
00
00
00
00
00
ENDCHAR
STARTCHAR 130
ENCODING 130
SWIDTH    7000    0
DWIDTH    7    0
BBX  7  13  0   -3
BITMAP
00
00
00
00
00
00
00
00
10
10
10
20
00
ENDCHAR
STARTCHAR 131
ENCODING 131
SWIDTH    7000    0
DWIDTH    7    0
BBX  7  13  0   -3
BITMAP
00
0C
10
10
3C
10
10
10
10
10
10
60
00
ENDCHAR
STARTCHAR 132
ENCODING 132
SWIDTH    7000    0
DWIDTH    7    0
BBX  7  13  0   -3
BITMAP
00
00
00
00
00
00
00
00
28
28
28
00
00
ENDCHAR
STARTCHAR 133
ENCODING 133
SWIDTH    7000    0
DWIDTH    7    0
BBX  7  13  0   -3
BITMAP
00
00
00
00
00
00
00
00
00
54
00
00
00
ENDCHAR
STARTCHAR 134
ENCODING 134
SWIDTH    7000    0
DWIDTH    7    0
BBX  7  13  0   -3
BITMAP
00
10
10
7C
10
10
10
10
10
10
00
00
00
ENDCHAR
STARTCHAR 135
ENCODING 135
SWIDTH    7000    0
DWIDTH    7    0
BBX  7  13  0   -3
BITMAP
00
10
10
7C
10
7C
10
10
10
10
00
00
00
ENDCHAR
STARTCHAR 136
ENCODING 136
SWIDTH    7000    0
DWIDTH    7    0
BBX  7  13  0   -3
BITMAP
00
10
28
44
00
00
00
00
00
00
00
00
00
ENDCHAR
STARTCHAR 137
ENCODING 137
SWIDTH    7000    0
DWIDTH    7    0
BBX  7  13  0   -3
BITMAP
00
00
08
48
50
10
20
2A
4A
40
00
00
00
ENDCHAR
STARTCHAR 138
ENCODING 138
SWIDTH    7000    0
DWIDTH    7    0
BBX  7  13  0   -3
BITMAP
28
10
3C
42
40
30
0C
02
42
3C
00
00
00
ENDCHAR
STARTCHAR 139
ENCODING 139
SWIDTH    7000    0
DWIDTH    7    0
BBX  7  13  0   -3
BITMAP
00
00
00
00
10
20
40
20
10
00
00
00
00
ENDCHAR
STARTCHAR 140
ENCODING 140
SWIDTH    7000    0
DWIDTH    7    0
BBX  7  13  0   -3
BITMAP
00
00
6E
90
90
9C
90
90
90
6E
00
00
00
ENDCHAR
STARTCHAR 141
ENCODING 141
SWIDTH    7000    0
DWIDTH    7    0
BBX  7  13  0   -3
BITMAP
00
00
00
00
00
00
00
00
00
00
00
00
00
ENDCHAR
STARTCHAR 142
ENCODING 142
SWIDTH    7000    0
DWIDTH    7    0
BBX  7  13  0   -3
BITMAP
28
10
7E
02
04
08
10
20
40
7E
00
00
00
ENDCHAR
STARTCHAR 143
ENCODING 143
SWIDTH    7000    0
DWIDTH    7    0
BBX  7  13  0   -3
BITMAP
00
00
00
00
00
00
00
00
00
00
00
00
00
ENDCHAR
STARTCHAR 144
ENCODING 144
SWIDTH    7000    0
DWIDTH    7    0
BBX  7  13  0   -3
BITMAP
00
00
00
00
00
00
00
00
00
00
00
00
00
ENDCHAR
STARTCHAR 145
ENCODING 145
SWIDTH    7000    0
DWIDTH    7    0
BBX  7  13  0   -3
BITMAP
00
10
10
08
00
00
00
00
00
00
00
00
00
ENDCHAR
STARTCHAR 146
ENCODING 146
SWIDTH    7000    0
DWIDTH    7    0
BBX  7  13  0   -3
BITMAP
00
10
10
20
00
00
00
00
00
00
00
00
00
ENDCHAR
STARTCHAR 147
ENCODING 147
SWIDTH    7000    0
DWIDTH    7    0
BBX  7  13  0   -3
BITMAP
00
28
28
14
00
00
00
00
00
00
00
00
00
ENDCHAR
STARTCHAR 148
ENCODING 148
SWIDTH    7000    0
DWIDTH    7    0
BBX  7  13  0   -3
BITMAP
00
28
28
50
00
00
00
00
00
00
00
00
00
ENDCHAR
STARTCHAR 149
ENCODING 149
SWIDTH    7000    0
DWIDTH    7    0
BBX  7  13  0   -3
BITMAP
00
00
00
00
10
38
7C
38
10
00
00
00
00
ENDCHAR
STARTCHAR 150
ENCODING 150
SWIDTH    7000    0
DWIDTH    7    0
BBX  7  13  0   -3
BITMAP
00
00
00
00
00
00
7C
00
00
00
00
00
00
ENDCHAR
STARTCHAR 151
ENCODING 151
SWIDTH    7000    0
DWIDTH    7    0
BBX  7  13  0   -3
BITMAP
00
00
00
00
00
00
FE
00
00
00
00
00
00
ENDCHAR
STARTCHAR 152
ENCODING 152
SWIDTH    7000    0
DWIDTH    7    0
BBX  7  13  0   -3
BITMAP
00
00
28
50
00
00
00
00
00
00
00
00
00
ENDCHAR
STARTCHAR 153
ENCODING 153
SWIDTH    7000    0
DWIDTH    7    0
BBX  7  13  0   -3
BITMAP
00
00
EE
4E
4A
4A
00
00
00
00
00
00
00
ENDCHAR
STARTCHAR 154
ENCODING 154
SWIDTH    7000    0
DWIDTH    7    0
BBX  7  13  0   -3
BITMAP
00
28
10
00
3C
40
30
08
04
78
00
00
00
ENDCHAR
STARTCHAR 155
ENCODING 155
SWIDTH    7000    0
DWIDTH    7    0
BBX  7  13  0   -3
BITMAP
00
00
00
00
40
20
10
20
40
00
00
00
00
ENDCHAR
STARTCHAR 156
ENCODING 156
SWIDTH    7000    0
DWIDTH    7    0
BBX  7  13  0   -3
BITMAP
00
00
00
00
6C
92
9E
90
92
6C
00
00
00
ENDCHAR
STARTCHAR 157
ENCODING 157
SWIDTH    7000    0
DWIDTH    7    0
BBX  7  13  0   -3
BITMAP
00
00
00
00
00
00
00
00
00
00
00
00
00
ENDCHAR
STARTCHAR 158
ENCODING 158
SWIDTH    7000    0
DWIDTH    7    0
BBX  7  13  0   -3
BITMAP
00
28
10
00
7C
04
08
10
20
7C
00
00
00
ENDCHAR
STARTCHAR 159
ENCODING 159
SWIDTH    7000    0
DWIDTH    7    0
BBX  7  13  0   -3
BITMAP
00
28
00
82
82
44
28
10
10
10
00
00
00
ENDCHAR
STARTCHAR 160
ENCODING 160
SWIDTH    7000    0
DWIDTH    7    0
BBX  7  13  0   -3
BITMAP
00
00
00
00
00
00
00
00
00
00
00
00
00
ENDCHAR
STARTCHAR 161
ENCODING 161
SWIDTH    7000    0
DWIDTH    7    0
BBX  7  13  0   -3
BITMAP
00
00
10
00
10
10
10
10
10
10
00
00
00
ENDCHAR
STARTCHAR 162
ENCODING 162
SWIDTH    7000    0
DWIDTH    7    0
BBX  7  13  0   -3
BITMAP
00
00
00
10
38
54
50
50
54
38
10
00
00
ENDCHAR
STARTCHAR 163
ENCODING 163
SWIDTH    7000    0
DWIDTH    7    0
BBX  7  13  0   -3
BITMAP
00
00
18
20
20
78
20
20
40
7C
00
00
00
ENDCHAR
STARTCHAR 164
ENCODING 164
SWIDTH    7000    0
DWIDTH    7    0
BBX  7  13  0   -3
BITMAP
00
00
00
82
7C
44
44
44
7C
82
00
00
00
ENDCHAR
STARTCHAR 165
ENCODING 165
SWIDTH    7000    0
DWIDTH    7    0
BBX  7  13  0   -3
BITMAP
00
00
82
82
44
28
10
7C
10
10
00
00
00
ENDCHAR
STARTCHAR 166
ENCODING 166
SWIDTH    7000    0
DWIDTH    7    0
BBX  7  13  0   -3
BITMAP
00
10
10
10
10
10
00
10
10
10
10
10
00
ENDCHAR
STARTCHAR 167
ENCODING 167
SWIDTH    7000    0
DWIDTH    7    0
BBX  7  13  0   -3
BITMAP
00
38
44
40
30
28
18
04
44
38
00
00
00
ENDCHAR
STARTCHAR 168
ENCODING 168
SWIDTH    7000    0
DWIDTH    7    0
BBX  7  13  0   -3
BITMAP
00
28
00
00
00
00
00
00
00
00
00
00
00
ENDCHAR
STARTCHAR 169
ENCODING 169
SWIDTH    7000    0
DWIDTH    7    0
BBX  7  13  0   -3
BITMAP
00
00
7C
82
9A
A2
A2
9A
82
7C
00
00
00
ENDCHAR
STARTCHAR 170
ENCODING 170
SWIDTH    7000    0
DWIDTH    7    0
BBX  7  13  0   -3
BITMAP
00
00
30
08
38
48
38
00
00
00
00
00
00
ENDCHAR
STARTCHAR 171
ENCODING 171
SWIDTH    7000    0
DWIDTH    7    0
BBX  7  13  0   -3
BITMAP
00
00
00
00
14
28
50
28
14
00
00
00
00
ENDCHAR
STARTCHAR 172
ENCODING 172
SWIDTH    7000    0
DWIDTH    7    0
BBX  7  13  0   -3
BITMAP
00
00
00
00
00
00
78
08
08
08
00
00
00
ENDCHAR
STARTCHAR 173
ENCODING 173
SWIDTH    7000    0
DWIDTH    7    0
BBX  7  13  0   -3
BITMAP
00
00
00
00
00
00
00
00
00
00
00
00
00
ENDCHAR
STARTCHAR 174
ENCODING 174
SWIDTH    7000    0
DWIDTH    7    0
BBX  7  13  0   -3
BITMAP
00
00
7C
82
B2
AA
B2
AA
82
7C
00
00
00
ENDCHAR
STARTCHAR 175
ENCODING 175
SWIDTH    7000    0
DWIDTH    7    0
BBX  7  13  0   -3
BITMAP
FE
00
00
00
00
00
00
00
00
00
00
00
00
ENDCHAR
STARTCHAR 176
ENCODING 176
SWIDTH    7000    0
DWIDTH    7    0
BBX  7  13  0   -3
BITMAP
00
30
48
48
30
00
00
00
00
00
00
00
00
ENDCHAR
STARTCHAR 177
ENCODING 177
SWIDTH    7000    0
DWIDTH    7    0
BBX  7  13  0   -3
BITMAP
00
00
00
10
10
7C
10
10
00
7C
00
00
00
ENDCHAR
STARTCHAR 178
ENCODING 178
SWIDTH    7000    0
DWIDTH    7    0
BBX  7  13  0   -3
BITMAP
00
70
08
10
20
78
00
00
00
00
00
00
00
ENDCHAR
STARTCHAR 179
ENCODING 179
SWIDTH    7000    0
DWIDTH    7    0
BBX  7  13  0   -3
BITMAP
00
70
08
30
08
70
00
00
00
00
00
00
00
ENDCHAR
STARTCHAR 180
ENCODING 180
SWIDTH    7000    0
DWIDTH    7    0
BBX  7  13  0   -3
BITMAP
00
08
10
00
00
00
00
00
00
00
00
00
00
ENDCHAR
STARTCHAR 181
ENCODING 181
SWIDTH    7000    0
DWIDTH    7    0
BBX  7  13  0   -3
BITMAP
00
00
00
00
44
44
44
44
64
5A
40
80
00
ENDCHAR
STARTCHAR 182
ENCODING 182
SWIDTH    7000    0
DWIDTH    7    0
BBX  7  13  0   -3
BITMAP
00
00
3E
74
74
34
14
14
14
14
14
00
00
ENDCHAR
STARTCHAR 183
ENCODING 183
SWIDTH    7000    0
DWIDTH    7    0
BBX  7  13  0   -3
BITMAP
00
00
00
00
00
38
38
38
00
00
00
00
00
ENDCHAR
STARTCHAR 184
ENCODING 184
SWIDTH    7000    0
DWIDTH    7    0
BBX  7  13  0   -3
BITMAP
00
00
00
00
00
00
00
00
00
00
18
08
10
ENDCHAR
STARTCHAR 185
ENCODING 185
SWIDTH    7000    0
DWIDTH    7    0
BBX  7  13  0   -3
BITMAP
00
20
60
20
20
70
00
00
00
00
00
00
00
ENDCHAR
STARTCHAR 186
ENCODING 186
SWIDTH    7000    0
DWIDTH    7    0
BBX  7  13  0   -3
BITMAP
00
30
48
48
48
30
00
00
00
00
00
00
00
ENDCHAR
STARTCHAR 187
ENCODING 187
SWIDTH    7000    0
DWIDTH    7    0
BBX  7  13  0   -3
BITMAP
00
00
00
00
50
28
14
28
50
00
00
00
00
ENDCHAR
STARTCHAR 188
ENCODING 188
SWIDTH    7000    0
DWIDTH    7    0
BBX  7  13  0   -3
BITMAP
04
44
48
48
50
10
24
2C
5E
44
00
00
00
ENDCHAR
STARTCHAR 189
ENCODING 189
SWIDTH    7000    0
DWIDTH    7    0
BBX  7  13  0   -3
BITMAP
04
44
48
48
50
1C
22
24
48
4E
00
00
00
ENDCHAR
STARTCHAR 190
ENCODING 190
SWIDTH    7000    0
DWIDTH    7    0
BBX  7  13  0   -3
BITMAP
04
C4
28
68
30
D0
24
2C
5E
44
00
00
00
ENDCHAR
STARTCHAR 191
ENCODING 191
SWIDTH    7000    0
DWIDTH    7    0
BBX  7  13  0   -3
BITMAP
00
00
10
00
10
10
20
40
44
38
00
00
00
ENDCHAR
STARTCHAR 192
ENCODING 192
SWIDTH    7000    0
DWIDTH    7    0
BBX  7  13  0   -3
BITMAP
10
08
00
18
24
24
3C
42
42
42
00
00
00
ENDCHAR
STARTCHAR 193
ENCODING 193
SWIDTH    7000    0
DWIDTH    7    0
BBX  7  13  0   -3
BITMAP
08
10
00
18
24
24
3C
42
42
42
00
00
00
ENDCHAR
STARTCHAR 194
ENCODING 194
SWIDTH    7000    0
DWIDTH    7    0
BBX  7  13  0   -3
BITMAP
18
24
00
18
24
24
3C
42
42
42
00
00
00
ENDCHAR
STARTCHAR 195
ENCODING 195
SWIDTH    7000    0
DWIDTH    7    0
BBX  7  13  0   -3
BITMAP
14
28
00
18
24
24
3C
42
42
42
00
00
00
ENDCHAR
STARTCHAR 196
ENCODING 196
SWIDTH    7000    0
DWIDTH    7    0
BBX  7  13  0   -3
BITMAP
00
24
00
18
24
24
3C
42
42
42
00
00
00
ENDCHAR
STARTCHAR 197
ENCODING 197
SWIDTH    7000    0
DWIDTH    7    0
BBX  7  13  0   -3
BITMAP
18
24
24
18
24
24
3C
42
42
42
00
00
00
ENDCHAR
STARTCHAR 198
ENCODING 198
SWIDTH    7000    0
DWIDTH    7    0
BBX  7  13  0   -3
BITMAP
00
00
1E
28
28
4C
78
88
88
8E
00
00
00
ENDCHAR
STARTCHAR 199
ENCODING 199
SWIDTH    7000    0
DWIDTH    7    0
BBX  7  13  0   -3
BITMAP
00
00
1C
22
40
40
40
40
22
1C
08
08
10
ENDCHAR
STARTCHAR 200
ENCODING 200
SWIDTH    7000    0
DWIDTH    7    0
BBX  7  13  0   -3
BITMAP
20
10
00
7C
40
40
78
40
40
7C
00
00
00
ENDCHAR
STARTCHAR 201
ENCODING 201
SWIDTH    7000    0
DWIDTH    7    0
BBX  7  13  0   -3
BITMAP
08
10
00
7C
40
40
78
40
40
7C
00
00
00
ENDCHAR
STARTCHAR 202
ENCODING 202
SWIDTH    7000    0
DWIDTH    7    0
BBX  7  13  0   -3
BITMAP
10
28
00
7C
40
40
78
40
40
7C
00
00
00
ENDCHAR
STARTCHAR 203
ENCODING 203
SWIDTH    7000    0
DWIDTH    7    0
BBX  7  13  0   -3
BITMAP
00
28
00
7C
40
40
78
40
40
7C
00
00
00
ENDCHAR
STARTCHAR 204
ENCODING 204
SWIDTH    7000    0
DWIDTH    7    0
BBX  7  13  0   -3
BITMAP
10
08
00
38
10
10
10
10
10
38
00
00
00
ENDCHAR
STARTCHAR 205
ENCODING 205
SWIDTH    7000    0
DWIDTH    7    0
BBX  7  13  0   -3
BITMAP
08
10
00
38
10
10
10
10
10
38
00
00
00
ENDCHAR
STARTCHAR 206
ENCODING 206
SWIDTH    7000    0
DWIDTH    7    0
BBX  7  13  0   -3
BITMAP
10
28
00
38
10
10
10
10
10
38
00
00
00
ENDCHAR
STARTCHAR 207
ENCODING 207
SWIDTH    7000    0
DWIDTH    7    0
BBX  7  13  0   -3
BITMAP
00
28
00
38
10
10
10
10
10
38
00
00
00
ENDCHAR
STARTCHAR 208
ENCODING 208
SWIDTH    7000    0
DWIDTH    7    0
BBX  7  13  0   -3
BITMAP
00
00
00
78
44
42
F2
42
44
78
00
00
00
ENDCHAR
STARTCHAR 209
ENCODING 209
SWIDTH    7000    0
DWIDTH    7    0
BBX  7  13  0   -3
BITMAP
14
28
00
62
52
52
4A
4A
46
46
00
00
00
ENDCHAR
STARTCHAR 210
ENCODING 210
SWIDTH    7000    0
DWIDTH    7    0
BBX  7  13  0   -3
BITMAP
10
08
00
18
24
42
42
42
24
18
00
00
00
ENDCHAR
STARTCHAR 211
ENCODING 211
SWIDTH    7000    0
DWIDTH    7    0
BBX  7  13  0   -3
BITMAP
08
10
00
18
24
42
42
42
24
18
00
00
00
ENDCHAR
STARTCHAR 212
ENCODING 212
SWIDTH    7000    0
DWIDTH    7    0
BBX  7  13  0   -3
BITMAP
18
24
00
18
24
42
42
42
24
18
00
00
00
ENDCHAR
STARTCHAR 213
ENCODING 213
SWIDTH    7000    0
DWIDTH    7    0
BBX  7  13  0   -3
BITMAP
14
28
00
18
24
42
42
42
24
18
00
00
00
ENDCHAR
STARTCHAR 214
ENCODING 214
SWIDTH    7000    0
DWIDTH    7    0
BBX  7  13  0   -3
BITMAP
00
24
00
18
24
42
42
42
24
18
00
00
00
ENDCHAR
STARTCHAR 215
ENCODING 215
SWIDTH    7000    0
DWIDTH    7    0
BBX  7  13  0   -3
BITMAP
00
00
00
00
44
28
10
28
44
00
00
00
00
ENDCHAR
STARTCHAR 216
ENCODING 216
SWIDTH    7000    0
DWIDTH    7    0
BBX  7  13  0   -3
BITMAP
00
00
1A
24
4A
4A
52
52
24
58
00
00
00
ENDCHAR
STARTCHAR 217
ENCODING 217
SWIDTH    7000    0
DWIDTH    7    0
BBX  7  13  0   -3
BITMAP
10
08
00
42
42
42
42
42
42
3C
00
00
00
ENDCHAR
STARTCHAR 218
ENCODING 218
SWIDTH    7000    0
DWIDTH    7    0
BBX  7  13  0   -3
BITMAP
08
10
00
42
42
42
42
42
42
3C
00
00
00
ENDCHAR
STARTCHAR 219
ENCODING 219
SWIDTH    7000    0
DWIDTH    7    0
BBX  7  13  0   -3
BITMAP
18
24
00
42
42
42
42
42
42
3C
00
00
00
ENDCHAR
STARTCHAR 220
ENCODING 220
SWIDTH    7000    0
DWIDTH    7    0
BBX  7  13  0   -3
BITMAP
00
24
00
42
42
42
42
42
42
3C
00
00
00
ENDCHAR
STARTCHAR 221
ENCODING 221
SWIDTH    7000    0
DWIDTH    7    0
BBX  7  13  0   -3
BITMAP
08
10
00
82
82
44
28
10
10
10
00
00
00
ENDCHAR
STARTCHAR 222
ENCODING 222
SWIDTH    7000    0
DWIDTH    7    0
BBX  7  13  0   -3
BITMAP
00
00
40
40
78
44
44
78
40
40
00
00
00
ENDCHAR
STARTCHAR 223
ENCODING 223
SWIDTH    7000    0
DWIDTH    7    0
BBX  7  13  0   -3
BITMAP
00
38
44
44
78
44
42
42
42
7C
80
00
00
ENDCHAR
STARTCHAR 224
ENCODING 224
SWIDTH    7000    0
DWIDTH    7    0
BBX  7  13  0   -3
BITMAP
00
10
08
00
38
04
3C
44
44
3C
00
00
00
ENDCHAR
STARTCHAR 225
ENCODING 225
SWIDTH    7000    0
DWIDTH    7    0
BBX  7  13  0   -3
BITMAP
00
08
10
00
38
04
3C
44
44
3C
00
00
00
ENDCHAR
STARTCHAR 226
ENCODING 226
SWIDTH    7000    0
DWIDTH    7    0
BBX  7  13  0   -3
BITMAP
00
10
28
00
38
04
3C
44
44
3C
00
00
00
ENDCHAR
STARTCHAR 227
ENCODING 227
SWIDTH    7000    0
DWIDTH    7    0
BBX  7  13  0   -3
BITMAP
00
14
28
00
38
04
3C
44
44
3C
00
00
00
ENDCHAR
STARTCHAR 228
ENCODING 228
SWIDTH    7000    0
DWIDTH    7    0
BBX  7  13  0   -3
BITMAP
00
00
28
00
38
04
3C
44
44
3C
00
00
00
ENDCHAR
STARTCHAR 229
ENCODING 229
SWIDTH    7000    0
DWIDTH    7    0
BBX  7  13  0   -3
BITMAP
10
28
10
00
38
04
3C
44
44
3C
00
00
00
ENDCHAR
STARTCHAR 230
ENCODING 230
SWIDTH    7000    0
DWIDTH    7    0
BBX  7  13  0   -3
BITMAP
00
00
00
00
6C
12
7E
90
92
7C
00
00
00
ENDCHAR
STARTCHAR 231
ENCODING 231
SWIDTH    7000    0
DWIDTH    7    0
BBX  7  13  0   -3
BITMAP
00
00
00
00
38
44
40
40
44
38
10
10
20
ENDCHAR
STARTCHAR 232
ENCODING 232
SWIDTH    7000    0
DWIDTH    7    0
BBX  7  13  0   -3
BITMAP
00
20
10
00
38
44
7C
40
44
38
00
00
00
ENDCHAR
STARTCHAR 233
ENCODING 233
SWIDTH    7000    0
DWIDTH    7    0
BBX  7  13  0   -3
BITMAP
00
10
20
00
38
44
7C
40
44
38
00
00
00
ENDCHAR
STARTCHAR 234
ENCODING 234
SWIDTH    7000    0
DWIDTH    7    0
BBX  7  13  0   -3
BITMAP
00
10
28
00
38
44
7C
40
44
38
00
00
00
ENDCHAR
STARTCHAR 235
ENCODING 235
SWIDTH    7000    0
DWIDTH    7    0
BBX  7  13  0   -3
BITMAP
00
00
28
00
38
44
7C
40
44
38
00
00
00
ENDCHAR
STARTCHAR 236
ENCODING 236
SWIDTH    7000    0
DWIDTH    7    0
BBX  7  13  0   -3
BITMAP
00
20
10
00
30
10
10
10
10
10
00
00
00
ENDCHAR
STARTCHAR 237
ENCODING 237
SWIDTH    7000    0
DWIDTH    7    0
BBX  7  13  0   -3
BITMAP
00
10
20
00
30
10
10
10
10
10
00
00
00
ENDCHAR
STARTCHAR 238
ENCODING 238
SWIDTH    7000    0
DWIDTH    7    0
BBX  7  13  0   -3
BITMAP
00
10
28
00
30
10
10
10
10
10
00
00
00
ENDCHAR
STARTCHAR 239
ENCODING 239
SWIDTH    7000    0
DWIDTH    7    0
BBX  7  13  0   -3
BITMAP
00
28
00
00
30
10
10
10
10
10
00
00
00
ENDCHAR
STARTCHAR 240
ENCODING 240
SWIDTH    7000    0
DWIDTH    7    0
BBX  7  13  0   -3
BITMAP
00
34
08
14
04
3C
44
44
44
38
00
00
00
ENDCHAR
STARTCHAR 241
ENCODING 241
SWIDTH    7000    0
DWIDTH    7    0
BBX  7  13  0   -3
BITMAP
00
28
50
00
78
44
44
44
44
44
00
00
00
ENDCHAR
STARTCHAR 242
ENCODING 242
SWIDTH    7000    0
DWIDTH    7    0
BBX  7  13  0   -3
BITMAP
00
20
10
00
38
44
44
44
44
38
00
00
00
ENDCHAR
STARTCHAR 243
ENCODING 243
SWIDTH    7000    0
DWIDTH    7    0
BBX  7  13  0   -3
BITMAP
00
08
10
00
38
44
44
44
44
38
00
00
00
ENDCHAR
STARTCHAR 244
ENCODING 244
SWIDTH    7000    0
DWIDTH    7    0
BBX  7  13  0   -3
BITMAP
00
10
28
00
38
44
44
44
44
38
00
00
00
ENDCHAR
STARTCHAR 245
ENCODING 245
SWIDTH    7000    0
DWIDTH    7    0
BBX  7  13  0   -3
BITMAP
00
14
28
00
38
44
44
44
44
38
00
00
00
ENDCHAR
STARTCHAR 246
ENCODING 246
SWIDTH    7000    0
DWIDTH    7    0
BBX  7  13  0   -3
BITMAP
00
00
28
00
38
44
44
44
44
38
00
00
00
ENDCHAR
STARTCHAR 247
ENCODING 247
SWIDTH    7000    0
DWIDTH    7    0
BBX  7  13  0   -3
BITMAP
00
00
00
00
10
00
7C
00
10
00
00
00
00
ENDCHAR
STARTCHAR 248
ENCODING 248
SWIDTH    7000    0
DWIDTH    7    0
BBX  7  13  0   -3
BITMAP
00
00
00
04
38
4C
54
54
64
38
40
00
00
ENDCHAR
STARTCHAR 249
ENCODING 249
SWIDTH    7000    0
DWIDTH    7    0
BBX  7  13  0   -3
BITMAP
00
20
10
00
44
44
44
44
44
3C
00
00
00
ENDCHAR
STARTCHAR 250
ENCODING 250
SWIDTH    7000    0
DWIDTH    7    0
BBX  7  13  0   -3
BITMAP
00
10
20
00
44
44
44
44
44
3C
00
00
00
ENDCHAR
STARTCHAR 251
ENCODING 251
SWIDTH    7000    0
DWIDTH    7    0
BBX  7  13  0   -3
BITMAP
00
10
28
00
44
44
44
44
44
3C
00
00
00
ENDCHAR
STARTCHAR 252
ENCODING 252
SWIDTH    7000    0
DWIDTH    7    0
BBX  7  13  0   -3
BITMAP
00
00
28
00
44
44
44
44
44
3C
00
00
00
ENDCHAR
STARTCHAR 253
ENCODING 253
SWIDTH    7000    0
DWIDTH    7    0
BBX  7  13  0   -3
BITMAP
00
08
10
00
44
44
44
44
44
3C
04
04
38
ENDCHAR
STARTCHAR 254
ENCODING 254
SWIDTH    7000    0
DWIDTH    7    0
BBX  7  13  0   -3
BITMAP
00
00
40
40
78
44
44
44
44
78
40
40
00
ENDCHAR
STARTCHAR 255
ENCODING 255
SWIDTH    7000    0
DWIDTH    7    0
BBX  7  13  0   -3
BITMAP
00
00
28
00
44
44
44
44
44
3C
04
04
38
ENDCHAR
ENDFONT
